<?xml version="1.0" encoding="UTF-8"?>
<svg width="100" height="100" viewBox="0 0 100 100" xmlns="http://www.w3.org/2000/svg">
  <path d="M25,0 C30,10 35,25 25,35 C15,25 20,10 25,0 Z" fill="#2E7D32" opacity="0.1" transform="rotate(0, 50, 50) translate(25, 25)"/>
  <path d="M25,0 C30,10 35,25 25,35 C15,25 20,10 25,0 Z" fill="#2E7D32" opacity="0.1" transform="rotate(90, 50, 50) translate(25, 25)"/>
  <path d="M25,0 C30,10 35,25 25,35 C15,25 20,10 25,0 Z" fill="#2E7D32" opacity="0.1" transform="rotate(180, 50, 50) translate(25, 25)"/>
  <path d="M25,0 C30,10 35,25 25,35 C15,25 20,10 25,0 Z" fill="#2E7D32" opacity="0.1" transform="rotate(270, 50, 50) translate(25, 25)"/>
</svg>
